# xmcd
# 
# Track frame offsets:
#   150
#   6645
#   23443
#   39668
#   62180
#   80518
#   98973
#   111293
#   124180
#   134515
#   150533
#   164998
#   174280
#   185528
#   202408
# 
# Disc length: 2833 seconds
# 
# Revision: 2
# Processed by: cddbd v1.5.2PL0 Copyright (c) Steve Scherf et al.
# Submitted via: Synapstar 1.0 
# 
DISCID=d90b0f0f
DTITLE=Presley, Elvis - KC006
DYEAR=1995
DGENRE=Blues
TTITLE0=2001 Space Odyssey
TTITLE1=Unchained Melody
TTITLE2=Always On My Mind
TTITLE3=Polk Salad Annie
TTITLE4=It's Only Make Believe
TTITLE5=My Way
TTITLE6=Fever
TTITLE7=You Don't Have To Say You Love Me
TTITLE8=Hurt
TTITLE9=Steamroller Blues
TTITLE10=Suspicion
TTITLE11=Long Tall Sally
TTITLE12=Memories
TTITLE13=Until It's Time For You To Go
TTITLE14=I Believe
EXTD=MediaType: Karaoke CD+G Producer: Unknown
EXTT0=
EXTT1=
EXTT2=
EXTT3=
EXTT4=
EXTT5=
EXTT6=
EXTT7=
EXTT8=
EXTT9=
EXTT10=
EXTT11=
EXTT12=
EXTT13=
EXTT14=
PLAYORDER=
